<?xml version="1.0" encoding="utf-8"?>
<!-- Generator: Adobe Illustrator 16.2.1, SVG Export Plug-In . SVG Version: 6.00 Build 0)  -->
<!DOCTYPE svg PUBLIC "-//W3C//DTD SVG 1.1//EN" "http://www.w3.org/Graphics/SVG/1.1/DTD/svg11.dtd">
<svg version="1.1" id="Layer_1" xmlns="http://www.w3.org/2000/svg" xmlns:xlink="http://www.w3.org/1999/xlink" x="0px" y="0px"
	 width="300px" height="27px" viewBox="0 0 300 27" enable-background="new 0 0 300 27" xml:space="preserve">
<path fill="#231F20" d="M25.378,26.51L0.039,26.43v-6.326h2.05V6.327H0V0h25.25v8.455h-6.936V6.327H12.31v4.064h5.226v5.379H12.31
	v4.333h6.004v-2.13h6.936L25.378,26.51z M52.524,26.43H27.367v-6.326h2.375V6.327h-2.375V0h15.106v6.327h-2.509v13.776h6.251v-4.236
	h6.308V26.43z M120.549,26.43h-15.067v-6.326h2.433V6.327h-2.433V0h15.067v6.327h-2.414v13.776h2.414V26.43z M140.898,26.655h-8.227
	l-8.437-20.328h-1.96V0h14.214v6.327h-2.241l3.932,11.268l4.124-11.268h-2.166V0h10.658v6.327h-1.956L140.898,26.655z M178.1,26.43
	h-25.211v-6.326h2.051V6.327h-2.091V0H178.1v8.455h-6.936V6.327h-6.003v4.064h5.225v5.379h-5.225v4.333h6.003v-2.13h6.936V26.43z
	 M103.041,15.584c-0.358-0.651-0.807-1.283-1.349-1.899c-0.539-0.614-1.07-1.093-1.588-1.435c-1.022-0.695-3.051-1.799-6.09-3.311
	c-2.265-1.11-3.606-1.828-4.024-2.155c-0.429-0.311-0.644-0.778-0.644-1.4c0-1.289,0.757-1.933,2.269-1.933
	c1.91,0,3.3,0.962,4.178,2.877h7.224V0h-33.32v6.327h1.441v10.848c0,2.125-0.216,3.531-0.639,4.215
	c-0.424,0.701-1.112,1.052-2.057,1.052c-1.141,0-1.926-0.414-2.364-1.235c-0.441-0.837-0.66-2.406-0.66-4.71V6.327h1.358V0H52.132
	v6.327h2.199v9.695c0,2.867,0.234,4.99,0.702,6.376c0.454,1.425,1.158,2.64,2.117,3.64c0.127,0.136,0.263,0.267,0.402,0.392H75
	c0.879-0.763,1.558-1.668,2.04-2.714c0.765-1.688,1.154-3.854,1.154-6.5V6.327h1.29c0,0.065-0.004,0.655-0.004,0.723
	c0,1.6,0.391,3.06,1.177,4.378c0.787,1.334,1.732,2.378,2.847,3.136c1.186,0.83,3.038,1.813,5.557,2.955
	c1.999,0.888,3.31,1.584,3.932,2.089c0.578,0.461,0.867,1.037,0.867,1.733c0,1.334-0.829,2-2.49,2c-2.054,0-3.519-1.08-4.401-3.237
	h-7.247v6.326h22.098c1.625-1.707,2.441-3.753,2.441-6.134C104.261,18.604,103.853,17.035,103.041,15.584z"/>
<g>
	<path fill="#231F20" d="M185.703,0v26.407h-2.98V0H185.703z"/>
	<path fill="#231F20" d="M212.864,0h2.904v26.407h-2.378L196.34,4.753v21.654h-2.904V0h2.791l16.638,21.165V0z"/>
	<path fill="#231F20" d="M232.401,26.407h-9.167V0h9.167c8.301,0,14.035,5.697,14.035,13.166
		C246.437,20.636,240.702,26.407,232.401,26.407z M232.401,2.754h-6.187v20.9h6.187c6.678,0,10.942-4.526,10.942-10.413
		C243.344,7.356,239.079,2.754,232.401,2.754z"/>
	<path fill="#231F20" d="M271.823,2.716h-16.109v9.017h14.41v2.716h-14.41v9.243h16.298v2.716h-19.277V0h19.089V2.716z"/>
	<path fill="#231F20" d="M296.341,26.407l-8.45-11.354l-8.45,11.354h-3.433l10.149-13.467L276.385,0h3.509l8.109,10.79L296.039,0
		h3.47l-9.77,12.902l10.148,13.505H296.341z"/>
</g>
</svg>
