<?xml version="1.0" encoding="utf-8"?>
<!-- Generator: Adobe Illustrator 16.2.1, SVG Export Plug-In . SVG Version: 6.00 Build 0)  -->
<!DOCTYPE svg PUBLIC "-//W3C//DTD SVG 1.1//EN" "http://www.w3.org/Graphics/SVG/1.1/DTD/svg11.dtd">
<svg version="1.1" id="Layer_2" xmlns="http://www.w3.org/2000/svg" xmlns:xlink="http://www.w3.org/1999/xlink" x="0px" y="0px"
	 width="940px" height="80px" viewBox="0 0 940 80" enable-background="new 0 0 940 80" xml:space="preserve">
<path fill="#231F20" d="M118.216,79.354l-75.649-0.241V60.227h6.123V19.1h-6.237V0.21h75.383v25.242H97.129V19.1H79.203v12.134h15.6
	v16.056h-15.6v12.938h17.926v-6.354h20.706L118.216,79.354z M199.26,79.112h-75.104V60.227h7.088V19.1h-7.088V0.21h45.101V19.1
	h-7.49v41.127h18.659V47.578h18.834V79.112z M402.347,79.112h-44.983V60.227h7.262V19.1h-7.262V0.21h44.983V19.1h-7.207v41.127
	h7.207V79.112z M463.098,79.79h-24.561L413.35,19.1h-5.851V0.21h42.435V19.1h-6.689l11.736,33.636L467.294,19.1h-6.467V0.21h31.82
	V19.1h-5.84L463.098,79.79z M574.158,79.112h-75.265V60.227h6.124V19.1h-6.241V0.21h75.382v25.241h-20.701V19.1h-17.921v12.135
	h15.594v16.055h-15.594v12.938h17.921v-6.354h20.701V79.112z M350.074,46.737c-1.067-1.944-2.408-3.834-4.026-5.672
	c-1.609-1.834-3.193-3.263-4.742-4.284c-3.052-2.074-9.109-5.373-18.181-9.885c-6.763-3.316-10.768-5.458-12.014-6.436
	c-1.279-0.928-1.921-2.322-1.921-4.181c0-3.848,2.26-5.772,6.773-5.772c5.7,0,9.852,2.873,12.475,8.591h21.565V0.21h-99.476V19.1
	h4.303v32.383c0,6.348-0.645,10.542-1.906,12.589c-1.266,2.092-3.321,3.136-6.143,3.136c-3.403,0-5.752-1.232-7.057-3.686
	c-1.318-2.501-1.97-7.188-1.97-14.061V19.1h4.056V0.21H198.09V19.1h6.564v28.947c0,8.558,0.699,14.899,2.096,19.032
	c1.353,4.256,3.456,7.885,6.318,10.865c0.381,0.408,0.787,0.798,1.201,1.168h52.094c2.622-2.271,4.652-4.977,6.089-8.101
	c2.282-5.037,3.444-11.506,3.444-19.405V19.1h3.85c0,0.196-0.014,1.956-0.014,2.157c0,4.775,1.169,9.135,3.515,13.07
	c2.347,3.985,5.171,7.099,8.497,9.359c3.54,2.48,9.069,5.419,16.59,8.823c5.97,2.653,9.884,4.733,11.741,6.236
	c1.726,1.376,2.588,3.097,2.588,5.178c0,3.98-2.474,5.973-7.432,5.973c-6.133-0.002-10.507-3.229-13.14-9.67h-21.634v18.886h65.971
	c4.854-5.093,7.289-11.197,7.289-18.308C353.718,55.757,352.501,51.069,350.074,46.737z"/>
<g>
	<path fill="#231F20" d="M600.206,0.21v78.838h-8.896V0.21H600.206z"/>
	<path fill="#231F20" d="M681.293,0.21h8.671v78.838h-7.096l-50.906-64.647v64.647h-8.671V0.21h8.334l49.668,63.183V0.21z"/>
	<path fill="#231F20" d="M739.624,79.049h-27.367V0.21h27.367c24.777,0,41.896,17.007,41.896,39.307S764.401,79.049,739.624,79.049z
		 M739.624,8.432h-18.471v62.395h18.471c19.935,0,32.663-13.515,32.663-31.084C772.287,22.173,759.559,8.432,739.624,8.432z"/>
	<path fill="#231F20" d="M857.311,8.319h-48.092v26.919h43.023v8.107h-43.023v27.594h48.656v8.109h-57.552V0.21h56.987V8.319z"/>
	<path fill="#231F20" d="M930.512,79.049l-25.228-33.9l-25.229,33.9h-10.248l30.297-40.206L870.934,0.21h10.474l24.214,32.211
		l23.99-32.211h10.36l-29.169,38.518l30.298,40.32H930.512z"/>
</g>
<g>
	<path d="M28.011,66.507v3.203H2.921v9.402H0V57.105h2.921v9.401H28.011z"/>
	<path d="M15.406,48.008h12.605v3.162H0v-3.162h12.445V31.842H0V28.68h28.011v3.162H15.406V48.008z"/>
	<path d="M2.882,0.494v17.084h9.562V2.293h2.882v15.285h9.802V0.292h2.882V20.74H0V0.494H2.882z"/>
</g>
</svg>
